<svg width="640" height="420" viewBox="0 0 640 420" fill="none" xmlns="http://www.w3.org/2000/svg">
  <rect width="640" height="420" rx="32" fill="#F7FBFF"/>
  <text x="44" y="58" fill="#091936" font-size="26" font-family="Arial, Helvetica, sans-serif">見える化で整理できること</text>
  <text x="44" y="84" fill="#657187" font-size="14" font-family="Arial, Helvetica, sans-serif">身体機能 / 作業負荷 / 就業継続の視点</text>
  <line x1="58" y1="328" x2="586" y2="328" stroke="#D9E5EF" stroke-width="2"/>
  <line x1="58" y1="124" x2="58" y2="328" stroke="#D9E5EF" stroke-width="2"/>
  <rect x="102" y="214" width="84" height="114" rx="22" fill="#CBE7FF"/>
  <rect x="223" y="166" width="84" height="162" rx="22" fill="#67D8EA"/>
  <rect x="344" y="138" width="84" height="190" rx="22" fill="#2E72FF"/>
  <rect x="465" y="182" width="84" height="146" rx="22" fill="#FF8F5B"/>
  <text x="109" y="353" fill="#657187" font-size="14" font-family="Arial, Helvetica, sans-serif">状態把握</text>
  <text x="232" y="353" fill="#657187" font-size="14" font-family="Arial, Helvetica, sans-serif">負荷整理</text>
  <text x="344" y="353" fill="#657187" font-size="14" font-family="Arial, Helvetica, sans-serif">対策設計</text>
  <text x="460" y="353" fill="#657187" font-size="14" font-family="Arial, Helvetica, sans-serif">継続支援</text>
  <path d="M110 194C160 162 250 129 298 126C356 122 420 140 486 154" stroke="#0A234E" stroke-width="4" stroke-linecap="round"/>
  <circle cx="111" cy="194" r="7" fill="#0A234E"/>
  <circle cx="298" cy="126" r="7" fill="#0A234E"/>
  <circle cx="486" cy="154" r="7" fill="#0A234E"/>
</svg>
